<svg width="124" height="365" viewBox="0 0 124 365" fill="none" xmlns="http://www.w3.org/2000/svg">
<path d="M4 362.282C4 357.864 7.58172 354.282 12 354.282H40V362.282H4Z" fill="#DEDBDA"/>
<rect x="-3" y="280.282" width="32" height="88" rx="16" transform="rotate(-15 -3 280.282)" fill="#DEDBDA"/>
<path d="M119.686 362.282C119.686 357.864 116.104 354.282 111.686 354.282H83.6855V362.282H119.686Z" fill="#DEDBDA"/>
<rect width="32" height="88" rx="16" transform="matrix(-0.965926 -0.258819 -0.258819 0.965926 126.686 280.282)" fill="#DEDBDA"/>
<path d="M36.5504 97.8832C37.137 89.5005 44.1083 83 52.5114 83H71.4886C79.8917 83 86.863 89.5005 87.4496 97.8832L104.802 345.883C105.45 355.137 98.1176 363 88.8413 363H35.1587C25.8824 363 18.5502 355.137 19.1977 345.883L36.5504 97.8832Z" fill="#B8B6B7"/>
<path d="M32 252.879C44.6175 246.285 57.924 204.879 63 185V361C52.9607 324.787 32.7058 252.466 32 252.879Z" fill="white"/>
<path d="M93 252.879C80.7895 246.285 67.9123 204.879 63 185V361C72.7154 324.787 92.317 252.466 93 252.879Z" fill="white"/>
<path d="M32 351H20C16.6863 351 12 356.373 12 363H40C40 356.373 35.3137 351 32 351Z" fill="white"/>
<path d="M20 363C20 360 20 355 22 354" stroke="black"/>
<path d="M31 363C31 360 31 355 29 354" stroke="black"/>
<path d="M102 351H90C86.6863 351 82 356.373 82 363H110C110 356.373 105.314 351 102 351Z" fill="white"/>
<path d="M91 363C91 360 91 355 93 354" stroke="black"/>
<path d="M102 363C102 360 102 355 100 354" stroke="black"/>
<path d="M32.1772 66C28.9965 51.0676 40.3832 37 55.6506 37H68.3494C83.6168 37 95.0035 51.0676 91.8228 66L74.6138 146.79C73.3456 152.744 68.0872 157 62 157C55.9128 157 50.6544 152.744 49.3862 146.79L32.1772 66Z" fill="#DEDBDA"/>
<circle cx="49" cy="103" r="3" fill="black"/>
<circle cx="75" cy="103" r="3" fill="black"/>
<ellipse cx="62" cy="149" rx="8" ry="4" fill="black"/>
<path d="M51.7092 4C56.2092 4 55.7092 37.9572 55.7092 37.9572C44.2235 40.849 35.0775 62.3699 32.9283 64.5C22.5911 59.8731 42.2092 4 51.7092 4Z" fill="#482712"/>
<path d="M72.0164 4C67.5164 4 68.0164 37.9572 68.0164 37.9572C79.5021 40.849 88.6481 62.3699 90.7972 64.5C101.134 59.8731 81.5164 4 72.0164 4Z" fill="#482712"/>
</svg>
