<svg width="112" height="184" viewBox="0 0 112 184" fill="none" xmlns="http://www.w3.org/2000/svg">
<path d="M26 182C26 179.239 28.2386 177 31 177H47V182H26Z" fill="#D69A6E"/>
<rect width="18.5976" height="50.7449" rx="9.29882" transform="matrix(0.966506 -0.256645 0.261009 0.965336 22 134.773)" fill="#D69A6E"/>
<path d="M85 182C85 179.239 82.7614 177 80 177H64V182H85Z" fill="#D69A6E"/>
<rect width="18.5976" height="50.7449" rx="9.29882" transform="matrix(-0.966506 -0.256645 -0.261009 0.965336 89.2195 134.773)" fill="#D69A6E"/>
<path d="M43.4802 96.162C44.4699 90.2952 49.5503 86 55.5 86C61.4497 86 66.5301 90.2952 67.5198 96.162L77.5919 155.869C79.8978 169.538 69.3622 182 55.5 182C41.6378 182 31.1022 169.538 33.4081 155.869L43.4802 96.162Z" fill="#F6D5A9"/>
<path d="M47.2857 174H38.7143C36.3474 174 33 177.582 33 182H53C53 177.582 49.6526 174 47.2857 174Z" fill="white"/>
<path d="M39 182C39 179.667 39 175.778 41 175" stroke="black"/>
<path d="M48 182C48 179.667 48 175.778 46 175" stroke="black"/>
<path d="M72.2857 174H63.7143C61.3474 174 58 177.582 58 182H78C78 177.582 74.6526 174 72.2857 174Z" fill="white"/>
<path d="M64 182C64 179.667 64 175.778 65 175" stroke="black"/>
<path d="M72 182C72 179.667 72 175.778 70 175" stroke="black"/>
<path d="M33.63 76.5166C28.8593 61.3988 40.1473 46 56 46C71.8527 46 83.1407 61.3988 78.37 76.5166L68.0716 109.151C66.4093 114.419 61.5235 118 56 118C50.4765 118 45.5907 114.419 43.9284 109.151L33.63 76.5166Z" fill="#D69A6E"/>
<circle cx="43" cy="79" r="3" fill="black"/>
<circle cx="69" cy="79" r="3" fill="black"/>
<ellipse cx="56" cy="111" rx="8" ry="4" fill="black"/>
<ellipse cx="37.6487" cy="52.3717" rx="7.53545" ry="7.37174" fill="#482712"/>
<ellipse cx="16.5496" cy="78.9099" rx="10.5496" ry="10.3204" fill="#482712"/>
<path d="M9.01416 71.5383L31.6205 47.9487L45 54L32.6843 107.5L9.01416 71.5383Z" fill="#482712"/>
<path d="M6.18433 104L6 78.9099L25.6843 84L32.6843 103.5L6.18433 104Z" fill="#482712"/>
<ellipse cx="19.6846" cy="104" rx="13.5" ry="13" fill="#482712"/>
<ellipse cx="7.53545" cy="7.37174" rx="7.53545" ry="7.37174" transform="matrix(-1 0 0 1 82.0708 45)" fill="#482712"/>
<ellipse cx="10.5496" cy="10.3204" rx="10.5496" ry="10.3204" transform="matrix(-1 0 0 1 106.184 68.5895)" fill="#482712"/>
<path d="M103.17 71.5383L80.5636 47.9487L67.1841 54L79.4998 107.5L103.17 71.5383Z" fill="#482712"/>
<path d="M106 104L106.184 78.9099L86.4998 84L79.4998 103.5L106 104Z" fill="#482712"/>
<ellipse cx="13.5" cy="13" rx="13.5" ry="13" transform="matrix(-1 0 0 1 106 91)" fill="#482712"/>
</svg>
