<svg width="140" height="306" viewBox="0 0 140 306" fill="none" xmlns="http://www.w3.org/2000/svg">
<path d="M4 304C4 297.925 8.92487 293 15 293H48V304H4Z" fill="black"/>
<rect width="38.3375" height="97.3001" rx="19.1687" transform="matrix(0.971448 -0.237252 0.282043 0.959402 -4 212.096)" fill="black"/>
<path d="M136 304C136 297.925 131.075 293 125 293H92V304H136Z" fill="black"/>
<rect width="38.5238" height="97.7728" rx="19.2619" transform="matrix(-0.971448 -0.237252 -0.282043 0.959402 144 212.14)" fill="black"/>
<path d="M43.5928 100.013C45.25 85.7547 57.327 75 71.6813 75C86.1072 75 98.2205 85.8591 99.7909 100.199L119.086 276.387C120.641 290.592 109.517 303 95.2282 303H46.951C32.5982 303 21.4545 290.486 23.1115 276.229L43.5928 100.013Z" fill="#45484B"/>
<path d="M43 196C54.6324 190.305 67.3203 167.168 72 150V303.147C62.7445 271.873 43.6507 195.643 43 196Z" fill="#E8904F"/>
<path d="M99 194.579C88.0105 188.809 76.4211 167.394 72 150V303C80.7439 271.314 98.3853 194.217 99 194.579Z" fill="#E8904F"/>
<path d="M48 292H36C32.6863 292 28 297.373 28 304H56C56 297.373 51.3137 292 48 292Z" fill="#E8904F"/>
<path d="M36 304C36 301 36 296 38 295" stroke="black"/>
<path d="M47 304C47 301 47 296 45 295" stroke="black"/>
<path d="M104 292H92C88.6863 292 84 297.373 84 304H112C112 297.373 107.314 292 104 292Z" fill="#E8904F"/>
<path d="M93 304C93 301 93 296 95 295" stroke="black"/>
<path d="M104 304C104 301 104 296 102 295" stroke="black"/>
<path d="M29.8941 64.0864C34.0517 45.8983 50.231 33 68.8883 33H71.6255C90.9531 33 107.516 46.8197 110.978 65.8348L112.009 71.496C112.545 74.4396 112.245 77.4745 111.143 80.2561L94.6652 121.841C91.0396 130.991 82.1951 137 72.353 137H67.6471C57.805 137 48.9605 130.991 45.3349 121.841L29.0004 80.6175C27.8087 77.61 27.5567 74.3118 28.2776 71.1581L29.8941 64.0864Z" fill="#45484B"/>
<ellipse cx="40.6487" cy="41.3717" rx="7.53545" ry="7.37174" fill="black"/>
<ellipse cx="19.5496" cy="67.9099" rx="10.5496" ry="10.3204" fill="black"/>
<path d="M12.0142 60.5383L34.6205 36.9487L48 43L35.6843 96.5L12.0142 60.5383Z" fill="black"/>
<path d="M9.18433 93L9 67.9099L28.6843 73L35.6843 92.5L9.18433 93Z" fill="black"/>
<ellipse cx="22.6846" cy="93" rx="13.5" ry="13" fill="black"/>
<ellipse cx="7.53545" cy="7.37174" rx="7.53545" ry="7.37174" transform="matrix(-1 0 0 1 107.071 34)" fill="black"/>
<ellipse cx="10.5496" cy="10.3204" rx="10.5496" ry="10.3204" transform="matrix(-1 0 0 1 131.184 57.5895)" fill="black"/>
<path d="M128.17 60.5383L105.564 36.9487L92.1841 43L104.5 96.5L128.17 60.5383Z" fill="black"/>
<path d="M131 93L131.184 67.9099L111.5 73L104.5 92.5L131 93Z" fill="black"/>
<ellipse cx="13.5" cy="13" rx="13.5" ry="13" transform="matrix(-1 0 0 1 131 80)" fill="black"/>
<path d="M65.5 76.9205C65.5 81.1082 60.7432 84.5029 56.4189 84.949C50.8252 85.5259 49.5 81.1082 49.5 76.9205C49.5 72.7328 53.6562 68 57.7162 68C61.7763 68 65.5 72.7328 65.5 76.9205Z" fill="#E8904F"/>
<circle cx="57.5" cy="80" r="3" fill="black"/>
<circle cx="83.5" cy="80" r="3" fill="black"/>
<path d="M51.2797 109.429C54.1932 97.0887 63.9967 94.6518 70.5 94V122.286C66.6428 122.286 65.8 121.547 64.5861 121.113C63.2854 122.633 67.543 132 51.7652 132C47.3483 132 47.6379 124.853 51.2797 109.429Z" fill="#E8904F"/>
<path d="M89.7203 109.429C86.8068 97.0887 77.0033 94.6518 70.5 94V122.286C74.3572 122.286 75.2 121.547 76.4139 121.113C77.7146 122.633 73.457 132 89.2348 132C93.6517 132 93.3621 124.853 89.7203 109.429Z" fill="#E8904F"/>
<path d="M70.5 94C65.1977 94 54.1512 94.5 51.5 110" stroke="black"/>
<path d="M70.5 94C75.8023 94 86.8488 94.5 89.5 110" stroke="black"/>
<path d="M70.4999 107C70.4999 112.5 64.4999 113 64.4999 123.5C64.4999 128.683 59.0262 132 51.4999 132C49.9999 132 47.6999 131.2 48.4999 126" stroke="black"/>
<path d="M70.5001 107C70.5001 112.5 76.5001 113 76.5001 123.5C76.5001 128.683 81.9738 132 89.5001 132C91.0001 132 93.3001 131.2 92.5001 126" stroke="black"/>
<ellipse cx="70.5" cy="96.5" rx="8" ry="3.5" fill="black"/>
</svg>
